# xmcd
#
# Track frame offsets: 
#        150
#        15119
#        28548
#        59553
#        76618
#        112660
#        147718
#        169765
#        197098
#        220287
#        243239
#
# Disc length: 3515 seconds
#
# Revision: 0
# Processed by: cddbd v1.5.2PL0 Copyright (c) Steve Scherf et al.
# Submitted via: ExactAudioCopy v1.0b3
#
DISCID=880db90b
DTITLE=Ry Cooder - Ebbets Field, Denver, CO, "0th May 1974
DYEAR=1974
DGENRE=Blues
TTITLE0=Too Tight Blues No. 2
TTITLE1=I Can Tell By The Way You Smell
TTITLE2=Blind Man In The Tear Gas
TTITLE3=Great Dream From Heaven
TTITLE4=How Can A Poor Man Stand Such Times And Live
TTITLE5=Ax Sweet Mama
TTITLE6=Floating Bridge
TTITLE7=Fool For A Cigarette
TTITLE8=Crazy 'Bout An Automobile
TTITLE9=Kentucky Blues
TTITLE10=Don't Take Everybody To Be A Friend
EXTD=
EXTT0=
EXTT1=
EXTT2=
EXTT3=
EXTT4=
EXTT5=
EXTT6=
EXTT7=
EXTT8=
EXTT9=
EXTT10=
PLAYORDER=
